/* XPM */
static char *_db3a9e38354468ed9f80cd5f9bcbfa7c0WA6d4bpsFklMzA[] = {
/* columns rows colors chars-per-pixel */
"16 16 124 2 ",
"   c #2A3517",
".  c #2F3A1A",
"X  c #323D1C",
"o  c #36431E",
"O  c #39461F",
"+  c #394520",
"@  c #3B4722",
"#  c #3B4A20",
"$  c #3E4C22",
"%  c #3F4E22",
"&  c #3C4A24",
"*  c #3F4D26",
"=  c #3F492D",
"-  c #404E26",
";  c #415126",
":  c #465727",
">  c #4A5C2B",
",  c #49592C",
"<  c #4A5A2E",
"1  c #4B5E2C",
"2  c #4D5C33",
"3  c #52622D",
"4  c #51652F",
"5  c #54652E",
"6  c #576B2E",
"7  c #576E2E",
"8  c #58712F",
"9  c #516330",
"0  c #536732",
"q  c #546532",
"w  c #516434",
"e  c #536534",
"r  c #556A31",
"t  c #576934",
"y  c #556837",
"u  c #596F32",
"i  c #576A38",
"p  c #5B6B3A",
"a  c #5B6C3A",
"s  c #58683C",
"d  c #5E6F3E",
"f  c #5A7033",
"g  c #5B7531",
"h  c #5B7734",
"j  c #5E7734",
"k  c #5C7831",
"l  c #5D7933",
"z  c #5E7B34",
"x  c #5D723B",
"c  c #607936",
"v  c #607D36",
"b  c #61753F",
"n  c #627B39",
"m  c #627E38",
"M  c #5B6644",
"N  c #5F7541",
"B  c #657743",
"V  c #617745",
"C  c #667947",
"Z  c #697F47",
"A  c #697E49",
"S  c #6A784F",
"D  c #676F57",
"F  c #676F58",
"G  c #687158",
"H  c #6B735B",
"J  c #678237",
"K  c #63803A",
"L  c #63813B",
"P  c #64813F",
"I  c #66853C",
"U  c #698147",
"Y  c #6E824B",
"T  c #6D844A",
"R  c #70874E",
"E  c #70884B",
"W  c #728C4E",
"Q  c #75904F",
"!  c #778955",
"~  c #7A9151",
"^  c #789454",
"/  c #7A9757",
"(  c #7B915B",
")  c #7D975D",
"_  c #809C5C",
"`  c #839166",
"'  c #819665",
"]  c #849A66",
"[  c #878F7A",
"{  c #859371",
"}  c #8A9E70",
"|  c #8B937B",
" . c #8F987F",
".. c #86A066",
"X. c #88A467",
"o. c #8BA46C",
"O. c #90AA71",
"+. c #92A379",
"@. c #97AA7D",
"#. c #93B072",
"$. c #919981",
"%. c #9DAD88",
"&. c #9DB083",
"*. c #A2B48B",
"=. c #B6C3A2",
"-. c #C0CBAE",
";. c #C6CBBC",
":. c #CBD0C1",
">. c #CDD1C3",
",. c #CDD1C6",
"<. c #CFDAC0",
"1. c #D5D7D1",
"2. c #DCDED9",
"3. c #DCE0D4",
"4. c #E1E9D8",
"5. c #E3ECD9",
"6. c #E7EDDF",
"7. c #EFF5E8",
"8. c #F3F5F0",
"9. c #F7F8F5",
"0. c #F8FAF6",
"q. c #FBFCFA",
"w. c gray99",
"e. c white",
/* pixels */
"e.e.e.e.e.e.e.e.w.e.e.e.e.e.e.e.",
"e.e.e.e.8.=.+.C T @.5.q.e.e.e.e.",
"e.e.e.,.s 1 i y 4 d { *.4.e.e.e.",
"e.e.3.- $ r Z Z E } %.&.A 5.e.e.",
"e.e.M % # > m z c T ' ) 2 ! q.e.",
"e.=.o ; % r v g u p ] ( d : ;.e.",
"e.[ * & o r h g u B O.o.2 o | e.",
"e.F ; X O 4 z g u p ) X.2 , D e.",
"e.H w X $ r l 8 f 3 R X.q > G e.",
"e.$., @ # v L u f q W _ e <  .e.",
"e.>.* + + m I l 7 t W T A 9 :.e.",
"e.e.M   + x P l 8 5 R / V ( e.e.",
"e.e.2.= + a ^ K m a Q N ..6.e.e.",
"e.e.e.1.S V y 8 J 6 b #.7.e.e.e.",
"e.e.e.e.9.<.O.W ~ ` -.0.e.e.e.e.",
"e.e.e.e.e.e.e.e.e.e.e.e.e.e.e.e."
};
