/* XPM */
static char *_1f755c292b14fbac61f26c4015e32f29vtWJsViTae3bGp8[] = {
/* columns rows colors chars-per-pixel */
"64 64 202 2 ",
"   c None",
".  c #1E2510",
"X  c #202711",
"o  c #232B13",
"O  c #272E19",
"+  c #273014",
"@  c #2A3416",
"#  c #2D3817",
"$  c #2B3418",
"%  c #2E3A19",
"&  c #323D1B",
"*  c #2F3524",
"=  c #2F3821",
"-  c #343D22",
";  c #343A28",
":  c #35421D",
">  c #39461E",
",  c #3B491F",
"<  c #364222",
"1  c #394622",
"2  c #3D4B22",
"3  c #3C452B",
"4  c #3E4A2A",
"5  c #3F5022",
"6  c #404F1F",
"7  c #414E24",
"8  c #414D2C",
"9  c #435325",
"0  c #475826",
"q  c #495A27",
"w  c #45542A",
"e  c #49572A",
"r  c #47592A",
"t  c #4B5C2C",
"y  c #485727",
"u  c #424E33",
"i  c #465432",
"p  c #495633",
"a  c #4C5B32",
"s  c #4E5B39",
"d  c #49553A",
"f  c #515F3A",
"g  c #4E612C",
"h  c #52642D",
"j  c #556C2E",
"k  c #596E2E",
"l  c #59722F",
"z  c #4E6133",
"x  c #536433",
"c  c #566B32",
"v  c #596D34",
"b  c #54643B",
"n  c #566A39",
"m  c #5B6D3B",
"M  c #567132",
"N  c #5B7432",
"B  c #5E7A34",
"V  c #5D723B",
"C  c #5F793A",
"Z  c #617D35",
"A  c #61753C",
"S  c #647C3C",
"D  c #657B35",
"F  c #515A40",
"G  c #586642",
"H  c #5C6C43",
"J  c #5D6C4A",
"K  c #556642",
"L  c #5E7242",
"P  c #5D6852",
"I  c #627543",
"U  c #657B42",
"Y  c #697D43",
"T  c #657A49",
"R  c #6A7C4D",
"E  c #62754C",
"W  c #64695E",
"Q  c #6B7C53",
"!  c #667555",
"~  c #6A7260",
"^  c #648336",
"/  c #698436",
"(  c #6C8937",
")  c #65843A",
"_  c #6A843D",
"`  c #678939",
"'  c #6A8B3D",
"]  c #748E3D",
"[  c #6F903E",
"{  c #668143",
"}  c #6B8344",
"|  c #6D8B44",
" . c #6C834A",
".. c #6E884B",
"X. c #718645",
"o. c #728D42",
"O. c #71864D",
"+. c #738B4C",
"@. c #739344",
"#. c #759B44",
"$. c #7C9C43",
"%. c #75934C",
"&. c #7B944C",
"*. c #7D9E4E",
"=. c #779948",
"-. c #6E8251",
";. c #6E8A50",
":. c #728554",
">. c #748C53",
",. c #72845C",
"<. c #758A59",
"1. c #798D59",
"2. c #7A8E57",
"3. c #769252",
"4. c #7A9253",
"5. c #7C9A53",
"6. c #7C955A",
"7. c #7E9B5A",
"8. c #7CA34B",
"9. c #7FA052",
"0. c #7E9560",
"q. c #7F9B60",
"w. c #7E8871",
"e. c #788962",
"r. c #829A57",
"t. c #819D5C",
"y. c #84A34B",
"u. c #81A351",
"i. c #85AA55",
"p. c #85A25D",
"a. c #87AC59",
"s. c #8AAB5D",
"d. c #8CB05E",
"f. c #829664",
"g. c #839C63",
"h. c #859C69",
"j. c #84996A",
"k. c #818E70",
"l. c #879870",
"z. c #85A264",
"x. c #89A465",
"c. c #8BAB62",
"v. c #8CA56B",
"b. c #8DAA6B",
"n. c #86A368",
"m. c #92AD6D",
"M. c #90B664",
"N. c #91B16D",
"B. c #97BC6B",
"V. c #8EAB71",
"C. c #8BA170",
"Z. c #93AD74",
"A. c #95AC79",
"S. c #92A478",
"D. c #95B171",
"F. c #9AB47A",
"G. c #9EBA7B",
"H. c #9AB577",
"J. c #9AC36D",
"K. c #9DC570",
"L. c #A0C774",
"P. c #97A684",
"I. c #9CB581",
"U. c #9FBD82",
"Y. c #A0B583",
"T. c #A3BC84",
"R. c #A5BC8A",
"E. c #A9BF8E",
"W. c #A4B491",
"Q. c #A9AFA0",
"!. c #B3BBAA",
"~. c #A4C384",
"^. c #ACC787",
"/. c #A7C38A",
"(. c #AAC38B",
"). c #AAC88B",
"_. c #B3D58D",
"`. c #ACC193",
"'. c #B4CA9C",
"]. c #B9CE9D",
"[. c #B3C79A",
"{. c #B4D392",
"}. c #B8D29B",
"|. c #B8C5A6",
" X c #BBCDA6",
".X c #BBCAA8",
"XX c #BED7A4",
"oX c #BEC4B4",
"OX c #C0DD9F",
"+X c #C0CDAF",
"@X c #C2DBA6",
"#X c #C1D5AB",
"$X c #C2CEB2",
"%X c #CAD1BD",
"&X c #C4D2B4",
"*X c #CCE0B4",
"=X c #CEE4B8",
"-X c #C6E1A9",
";X c #D5E4C5",
":X c #DEE6D1",
">X c #E3ECD7",
",X c #E3ECDA",
/* pixels */
"                                                                                                                                ",
"                                                                                                                                ",
"                                                                                                                                ",
"                                                                                                                                ",
"                                                    E.E.W.x.+.X.&.i.b.[.].E.                                                    ",
"                                              v.m.D.F.Y.S.4._ S [ *.r.^.^.m.m.).XX                                              ",
"                                          +.4.t.x.b.h.,.b 8 % $ & 1 w Q f.t.c.G.{.=X,X                                          ",
"                                      } Y } +.{ a 3 p I R I I h h h g I ! s 4 H F.*X,X>X;X                                      ",
"                                  m Y S A t % 4 V V t T v b 2 2 0 > q n :.b R R b P Q.:X&X}.}.                                  ",
"                                t c _ g % 2 c c { a x  .n 2 8 2 5 q ' U w f.t R 6.F.w.W W.}.^.).                                ",
"                              9 q g : : c c M 9 z V e  .A n :. .r j g z L f.a t <.L |.oX~ ! T.G.D.                              ",
"                            7 2 , . : g V c j < 1 r 7 %...R A k j N Z { f a n a b x P.P.$Xl.d h.m.p.Z.                          ",
"                          0 7 & . : , g M c c # c c } t.Z.v.4.+.5.p.H.v.Z.g.I b x H G |.$X`.l.u >.p.+.m.                        ",
"                        j 9 @ . : > 5 g N c N r { 5.m.H.I.v. .A o.&.^.F.D.).R.f.t.H f.%X.XE.F.v.8 T +.*.                        ",
"                      S j : o : % : , t c h N Y +.5.>.H b i 1 , , 9 b b T D.@X>X&XA.|.%X$XE.A.v.<.< m =.*.                      ",
"                    t D 9 o 6 : : > 2 t c m } A t 2 g S } ) N j j B ' Y Q G ! !.;X@X.X%X+XR.D.f.n x & } @.5.                    ",
"                  7 t v o q 6 : % : 6 y r v x : x ) ) ' { ^ N l j B ] Y r.f.R I ! R.^.'. XR.h.4 Q a n 1 o._ r.                  ",
"                  , q : : t , : & : , 6 9 & 9 v M C { ' { C M k h D ' Y Q r.:.O.t.J <.Z.G.T.G H Q w I 2 t / o.                  ",
"                , 9 , o 6 Y , & & , 0 , $ t c N ^ C ) ` ) B M j h l _ _ A R O.Y 1.h.<.G t.p.Z.H 3 L 4 1 & A _ X.                ",
"                , , X & > S 7 & : k 6 + r h x N M ^ ) ^ ^ B N j j k / D A Y R A Y 2.A.k.s ..c.v.T 8 1 t 9 > _ D                 ",
"              , 7 % X , V j h : t c + 9 c h c N B ^ ^ ^ ^ M l j j j ^ ^ V Y Y A U >.p.P.P.w =.x.-.b a v v & j v m               ",
"              > 7 X & , 2 : 2 a t 1 > t x x j N B B ^ ^ ^ ^ j l j k D ^ m Y I A S +.j.W.'.Q M | x.s m 7 9 & : v h               ",
"              , 1 X 7 x > t > , 6 + , r c h c N ^ ^ ^ ^ l M ^ j k v D N e p a n S :.A.|.E.F.a S +.2.b V D & $ h e               ",
"            & > + + 9 9 & g r , o : 2 r z g c N M M M ^ ^ M l l j j h t m I m t f t./. XR.F.6.9 D 2.8 9 v r > 2 y w             ",
"            : 1 X & : 9 T A 1 & o & , r x c c N c g c ^ j ^ l l j g N v V U T R >.b.~.'.I.G.n.a v m T a 9 & # $ y 7             ",
"            : 1 . : v c a : 2 X @ & , e t x c N m t c ^ M l l l k h Z v V I T :.6.z.U.[.U.v.v.:.7 t A 1 t & # X 9 ,             ",
"            & & X & 9 R -.1 , . @ & > e t g c B ^ N ) ) l ^ ^ l k j ^ c m A Y Q 4.g.D.`./.V.x.g.8 y x e c 7 9 $ 2 7 1           ",
"          & : $ + g Y f & & % + @ & , w z c M B B ^ ^ ^ ^ ^ l l M k S v A A I Y >.q.V.I.U.V.n.t.f 7 7 m e & $ o & , -           ",
"          & : o @ , < a a : + @ @ : 2 w j c N B ^ ^ ^ ` ^ ^ l M k A D v m A I R >.t.V.Z.Z.b.v.g.:.& 7 v t 7 < 1 $ 1 <           ",
"          & : o % 0 n # z : o + @ # > t c g t g j ^ ^ ^ ^ B ^ l k v A h b m A Y ..6.b.V.m.c.v.t.h.$ 6 x x t r 9 o 2 &           ",
"          & 1 X > N C a r < . @ @ % , g x 8 v N j j M j M B M l k k A h v x m I n 6.n.v.b.x.t.h.C.& & a m I x 7 o , &           ",
"          : 1 X % , r r 1 1 X @ @ & 9 h 1 t c h M ^ B ^ M ^ l l k k D m h a a a N >.n.v.v.g.x.v.v.- > t c h 0 $ X 2 &           ",
"          : 1 o : B S I : 1 X $ @ : 9 a 5 c M c ^ M ^ ^ j ^ l l k h l B h h h h m Y t.n.v.g.n.x.b.3 1 t g t w 7 o 1 &           ",
"          > > o 2 t  .: & , X + + > 9 t 9 g c M M M ^ ^ l M l l k k D k h g h h V Y %.n.N.b.c.b.m.< 1 r v g r t o 2 &           ",
"          > , $ , U ,.f > 7 o + + > 9 z s a c c C ^ ` ` ^ j 0 l j j D D h h h h N U  .q.b.z.9.n.m.& 1 z t 7 9 1 @ 2 <           ",
"          : 1 $ % x R x 1 , $ + @ > 9 g m m C L z ^ ^ ^ ^ j g l k j v N h h h a n L 7.q.z.x.q.v.V.% 1 c c b g 4 $ 2 :           ",
"          > , - @  .n s @ 2 & + + : 9 g M M ^ ) z ^ ^ ^ M j ^ l k j k h y y e f C  .7.q.7.7.7.7.<.< 2 v m m g 5 1 5 <           ",
"            , 9 +  .Y m 2 > w o @ > 9 h M C ^ { { ^ ` ^ ^ M l M j j D v h x v A U ..7.7.t.z.7.x.H e w V t g t $ 9 5             ",
"            , t + , 9 g t : j X % : 9 h M C ) ` M { | ` B j g l l k N A a h x v U ..6.7.9.v.;.b.w t n Y H H t O t 2             ",
"            9 t < 9 N , & r h - + % 9 g M M ) { { ) ` ` M B g l D l D D x x m A U ..7.7.7.7.5.6.9 x { m L g g & r w             ",
"            , q 9 : 6 , w > g 9 o : , h V B ) | @.M ' ^ ^ M j M j k l l x h x A I O.r.t.9.q.>.w v n  .z v V 7 9 h e             ",
"              g x $ t 6 % w 9 9 = & 2 t k D ^ | | L M M ^ ^ B j g k l D v h v A A O.6.t.3.;.I z S 4.T  .A g % c h               ",
"              g g - , 2 # @ 2 , 8 $ 1 w g S ) @.#.| ` ' ^ ^ M M g l D l k f m I U ..4.r.q.7.a | Y f. .} S g 9 v h               ",
"              t h w @ > @ # : @ > 3 > r c M C } %.' ' ) M M M g j h j h h h x v I } +.7.9.C } %.x.0.I h S - A v a               ",
"                g , - % & @ % : % 1 3 r v N ) ..{ n C ) ^ B l j j k k h h h h x A } 3.6.{ T 9.5.R <.4.S 9 t } V                 ",
"                9 2 8 O @ @ @ @ & $ 8 3 h N V Y ..n C ` ^ ^ N M N l l j h h h k A } <. .<.M.9.z.n J b c 2 X.S V                 ",
"                  > > 8 o @ o + : @ $ 8 p n V  ...M ^ ` ^ B l B l B l h h h h h A { T f.{.a.{ b <.6.m 2 S @.}                   ",
"                    : 1 ; + @ @ + > : & a G V %.;.| | ` ^ ^ l l B Z D k h h h D A z 7.@X~...U 3.d n.L n u.&.                    ",
"                    & & 8 * o o + 1 6 9 7 b :.T >.=.| ` ^ ^ M B D D D k k h h e m c.K.G.L a 5.V 0.z z 9.u.@.                    ",
"                      & & 8 * @ & & & w h x S 6.l.,.C ` ^ ^ ^ N D D D D h y f O.s.a.3.;.n ..r N.a b N.a.9.                      ",
"                        & : p * & & > w y A h S b.(.b.;.L V z g t h h x v R r.+.} C ..| g ;.n L J ).J.a.                        ",
"                          & & p 8 & 9 7 v v 6 r.L h.%.8.@.@.5.9.i.y.r.D D A v h m U { ....a b J XX{.B.                          ",
"                            & 1 b f 1 w w 7 w t.z I 0 : 2 M ^ { ] _ D N k k k h V S } +.%.n T _.-X_.                            ",
"                              : w m Q d t N x I w 1 M g B 5 B B Z ^ / / l k h k v S Y V t 7.K._.XX                              ",
"                                2 x A 4.Q s S 6.-.5 M B j 5 ^ ^ Z / ( / D k j v V x 8 L s.M.J.~.                                ",
"                                    A } %.Z.w.W Q ..| ) j ^ M B D / ( / D k t 7 1 G t.p.s.d.                                    ",
"                                      V %.b./.(.q.L b t g g j k N B v t 7 w f I +.+.r.t.5.                                      ",
"                                          g.T.T.M.8.9.9.%. .T T { { X.&.o.S S Y X.+.+.                                          ",
"                                                9.#.#.@.[ @.o.$.$.y.] ] ] D A A                                                 ",
"                                                        ) ..4.r.t.t.y.S                                                         ",
"                                                                                                                                ",
"                                                                                                                                ",
"                                                                                                                                ",
"                                                                                                                                "
};
