/* XPM */
static char *e4d18346d04f4647a0feea0ecc6ba49d43ka58InUkilkBhZ[] = {
/* columns rows colors chars-per-pixel */
"32 32 153 2 ",
"   c #252D13",
".  c #273014",
"X  c #2B3517",
"o  c #2D3917",
"O  c #2B3419",
"+  c #2E3A19",
"@  c #313D1B",
"#  c #323B21",
"$  c #35421D",
"%  c #39461E",
"&  c #3A481F",
"*  c #374121",
"=  c #384324",
"-  c #3D4B22",
";  c #3D472A",
":  c #3F4A2A",
">  c #414F25",
",  c #425225",
"<  c #465927",
"1  c #455529",
"2  c #485729",
"3  c #47582B",
"4  c #4A5C2B",
"5  c #4C5C31",
"6  c #525F37",
"7  c #515F39",
"8  c #4E622E",
"9  c #51632D",
"0  c #556B2E",
"q  c #586E2F",
"w  c #5A722F",
"e  c #4E6031",
"r  c #536433",
"t  c #566C31",
"y  c #586D34",
"u  c #56663A",
"i  c #58673F",
"p  c #5A6C3B",
"a  c #5B7332",
"s  c #5E7A34",
"d  c #5D723C",
"f  c #5E783C",
"g  c #617D35",
"h  c #62753D",
"j  c #637B3C",
"k  c #5C6C43",
"l  c #5F684E",
"z  c #5F7142",
"x  c #606A4B",
"c  c #627444",
"v  c #657B42",
"b  c #697E46",
"n  c #63764A",
"m  c #677A4B",
"M  c #6A7D4A",
"N  c #697550",
"B  c #697258",
"V  c #638236",
"C  c #6A8636",
"Z  c #66843B",
"A  c #69853E",
"S  c #67893C",
"D  c #668142",
"F  c #6B8345",
"G  c #6C844A",
"H  c #75874F",
"J  c #738B4B",
"K  c #6F9044",
"L  c #759148",
"P  c #7B974F",
"I  c #7B9A4B",
"U  c #6F8354",
"Y  c #708655",
"T  c #748D54",
"R  c #788F54",
"E  c #74835C",
"W  c #778D5B",
"Q  c #779353",
"!  c #799555",
"~  c #7B9A54",
"^  c #7B955A",
"/  c #7D9A5A",
"(  c #7A8C63",
")  c #7C836E",
"_  c #7C9062",
"`  c #7E9068",
"'  c #809C5D",
"]  c #80A055",
"[  c #839B63",
"{  c #849268",
"}  c #859275",
"|  c #86A263",
" . c #8AA465",
".. c #8AA36A",
"X. c #8CAA6C",
"o. c #91A666",
"O. c #8DB061",
"+. c #93B26F",
"@. c #8EAA70",
"#. c #91A574",
"$. c #99A77B",
"%. c #96B076",
"&. c #99BB75",
"*. c #9BB47C",
"=. c #9FB97D",
"-. c #979D8D",
";. c #97A483",
":. c #9CA38E",
">. c #9DB781",
",. c #9FB883",
"<. c #9BA290",
"1. c #A3B687",
"2. c #A7BC87",
"3. c #A5B78A",
"4. c #A7BF8B",
"5. c #A6AB9C",
"6. c #A9AF9E",
"7. c #A8B497",
"8. c #AEBC9E",
"9. c #AEB3A2",
"0. c #B1B8A2",
"q. c #B8BFAB",
"w. c #A5C482",
"e. c #A8C089",
"r. c #ABC392",
"t. c #B6C99A",
"y. c #B9D19E",
"u. c #BAC2A9",
"i. c #BCCEA8",
"p. c #BDC3B2",
"a. c #C2CDAD",
"s. c #C3D1AF",
"d. c #C5DAAE",
"f. c #C1CDB0",
"g. c #C3C7BC",
"h. c #C3D2B0",
"j. c #C7D7B2",
"k. c #C9D1B9",
"l. c #CBE0B4",
"z. c #CED3C5",
"x. c #DFE3D8",
"c. c #E6ECDE",
"v. c #EAECE6",
"b. c #EDEEEB",
"n. c #EFF5EA",
"m. c #F0F2ED",
"M. c #F4F5F3",
"N. c #F5F6F2",
"B. c #F7F9F4",
"V. c #F8F9F6",
"C. c #F9FBF8",
"Z. c #FDFEFD",
"A. c white",
/* pixels */
"A.A.A.A.A.A.A.A.A.A.A.A.A.A.A.A.A.A.A.A.A.A.A.A.A.A.A.A.A.A.A.A.",
"A.A.A.A.A.A.A.A.A.A.A.A.A.A.A.C.C.A.A.A.A.A.A.A.A.A.A.A.A.A.A.A.",
"A.A.A.A.A.A.A.A.A.A.A.x.s.u.X.F I =.t.j.n.A.A.A.A.A.A.A.A.A.A.A.",
"A.A.A.A.A.A.A.A.A.z.[ J m m i , , u U Y y.c.n.A.A.A.A.A.A.A.A.A.",
"A.A.A.A.A.A.A.M.} f 3 < d d e : , a c c E :.i.d.V.A.A.A.A.A.A.A.",
"A.A.A.A.A.A.v.k - - t 4 4 f z v 0 a c 5 z 7.} [ =.n.A.A.A.A.A.A.",
"A.A.A.A.A.m.c X o < t 4 z | @.G P *.%.W c ;.u._ m  .M.A.A.A.A.A.",
"A.A.A.A.A.{ - @ $ < t j f f y 8 4 d Y 8.i.f.t...u d %.Z.A.A.A.A.",
"A.A.A.A.9.2 - % $ , 2 < s D Z t q A ^ M ( *.e.k p 5 j a.A.A.A.A.",
"A.A.A.M.5 X 9 $ & & , t s V V 0 q A v b Q ( Y [ r - , G M.A.A.A.",
"A.A.A.6.$ @ 4 1 4 & r a V V V 0 q j c c F #.` L m 5 , t 0.A.A.A.",
"A.A.A.l O 1 - - @ , 8 a s V w w 0 q r r M r.1.p J 5 4 - N A.A.A.",
"A.A.b.$ . 4 r @ X > r y e s w w 0 a h M ' r.*.T 9 r - . , b.A.A.",
"A.A.z.@ @ p 1 O o - 8 a s V V a q a p M ^ *.*.[ 1 5 1 @ % g.A.A.",
"A.A.6.X $ 1 , . o > 0 t V V V a q w p v Q X.X. .k 1 4 - + 5.A.A.",
"A.A.-.X - 5 -   o 4 1 t a a s w q h 6 u b ....[ n > y - o -.A.A.",
"A.A.:.+ < p $   + 3 8 t s V w w q h 9 9 h ' X. .n , 8 < + -.A.A.",
"A.A.9.+ 3 z - . $ 3 e t a S a 0 q w 9 9 d ^ | | h < 5 1 $ 6.A.A.",
"A.A.z.- 5 p $ @ o < a D s S a a q y 4 r F / ' ' u 5 r - = z.A.A.",
"A.A.M.4 = < - - + 3 a D V S a 0 w g 9 y F / ' ' 1 c p - 1 n.A.A.",
"A.A.A.E - > - 3 + < s D D s V 0 0 w t p b ' ! p h v y , E A.A.A.",
"A.A.A.p.3 $ X $ = - a D K S s 0 9 w 9 p h ' ! j ^ c t r u.A.A.A.",
"A.A.A.C.i # o + @ : t D f Z V t w 0 9 r h J R ' m f 8 H B.A.A.A.",
"A.A.A.A.p.= O . + * r D F S V w g q 9 0 h o.+.v U u J k.A.A.A.A.",
"A.A.A.A.A.) = . @ - 4 G W A V s g g 9 u ~ O.p G k ~ 2.A.A.A.A.A.",
"A.A.A.A.A.V.l ; * > t d ..~ F D A h h j f G d k >.w.B.A.A.A.A.A.",
"A.A.A.A.A.A.M.B r 5 8 c 5 < 8 g A g w q f b v &.l.M.A.A.A.A.A.A.",
"A.A.A.A.A.A.A.C.:.F U N c g 0 s g C a 4 r M O.d.A.A.A.A.A.A.A.A.",
"A.A.A.A.A.A.A.A.A.x.3.4.~ b h d j j q h J 1.c.A.A.A.A.A.A.A.A.A.",
"A.A.A.A.A.A.A.A.A.A.A.n.s.=. .| o.o.$.u.v.A.A.A.A.A.A.A.A.A.A.A.",
"A.A.A.A.A.A.A.A.A.A.A.A.A.A.A.A.A.A.A.Z.A.A.A.A.A.A.A.A.A.A.A.A.",
"A.A.A.A.A.A.A.A.A.A.A.A.A.A.A.A.A.A.A.Z.A.A.A.A.A.A.A.A.A.A.A.A."
};
